# xmcd CD database file
#
# Track frame offsets:
#	150
#	13739
#	29213
#	43482
#	65796
#	80739
#	100835
#	127711
#	147602
#	160542
#	177714
#	199917
#	218442
#	227808
#	249399
#	265477
#	286838
#	302534
#	318862
#	334750
#	343767
#
# Disc length: 4758 seconds
#
# Revision: 0
# Processed by: cddbd v1.5.2PL0 Copyright (c) Steve Scherf et al.
# Submitted via: CDex 1.51
#
DISCID=40129415
DTITLE=Georg Danzer - Liederbuch - Georg Danzer
DYEAR=1978
DGENRE=Liedermacher
TTITLE0=Sex-Appeal
TTITLE1=Ist Schon gut (That's Alright)
TTITLE2=Komm zieh' dich aus
TTITLE3=Ich sehne mich
TTITLE4=Laßt mich raus (Narrenhaus)
TTITLE5=Janosch
TTITLE6=Ein wenig Liebe (Hey Baby)
TTITLE7=Die Folter
TTITLE8=Ich bin dagegen
TTITLE9=Morgenrot
TTITLE10=War das etwa Haschisch
TTITLE11=I verlaß di
TTITLE12=I bin a Kniera (Die goldene Kniescheibe)
TTITLE13=Du mi a
TTITLE14=Die Moritat vom Frauenmörder Wurm
TTITLE15=Elfie
TTITLE16=Der legendäre Wixer-Blues vom 7. Oktober 1976
TTITLE17=Geh in Oasch
TTITLE18=Laß mi amoi no d' Sun aufgeh segn
TTITLE19=Wann i so zruckschau
TTITLE20=I wü no ned hamgeh
EXTD=YEAR: 1978
EXTT0=
EXTT1=
EXTT2=
EXTT3=
EXTT4=
EXTT5=
EXTT6=
EXTT7=
EXTT8=
EXTT9=
EXTT10=
EXTT11=
EXTT12=
EXTT13=
EXTT14=
EXTT15=
EXTT16=
EXTT17=
EXTT18=
EXTT19=
EXTT20=
PLAYORDER=
